<svg width="159" height="54" viewBox="0 0 159 54" fill="none" xmlns="http://www.w3.org/2000/svg">
<g clip-path="url(#clip0_206_517)">
<path d="M82.0448 33.0887H78.8569V45.6938H82.0448V33.0887Z" fill="#0C0C0C"/>
<path d="M90.7399 46.9421C90.2253 46.9416 89.7326 46.7408 89.3683 46.3838C89.0049 46.0268 88.8005 45.5428 88.7996 45.0379V37.174C88.7996 36.669 89.004 36.1847 89.3683 35.8276C89.7317 35.4705 90.2253 35.2699 90.7399 35.2699C91.2545 35.2699 91.7481 35.4705 92.1124 35.8276C92.4758 36.1847 92.6802 36.669 92.6802 37.174V45.0379C92.6802 45.5428 92.4749 46.0268 92.1115 46.3838C91.7481 46.7408 91.2545 46.9416 90.7399 46.9421ZM90.7399 50.0705C92.1001 50.0705 93.4045 49.5403 94.3663 48.5965C95.3282 47.6528 95.8681 46.3727 95.8681 45.0379V37.174C95.8681 35.8393 95.3282 34.5592 94.3663 33.6155C93.4045 32.6717 92.1001 32.1415 90.7399 32.1415C90.0663 32.1415 89.3998 32.2716 88.7778 32.5246C88.1557 32.7775 87.5896 33.1481 87.1138 33.6155C86.6376 34.0828 86.2599 34.6376 86.0022 35.2481C85.7444 35.8587 85.6118 36.5131 85.6118 37.174V45.0379C85.6118 45.6989 85.7444 46.3533 86.0022 46.9638C86.2599 47.5744 86.6376 48.1292 87.1138 48.5965C87.5896 49.0639 88.1557 49.4345 88.7778 49.6874C89.3998 49.9404 90.0663 50.0705 90.7399 50.0705Z" fill="#0C0C0C"/>
<path d="M102.622 33.0887H99.4346V52.5528H102.622V33.0887Z" fill="#0C0C0C"/>
<path d="M111.318 50.3718C110.804 50.3712 110.31 50.1704 109.947 49.8134C109.583 49.4565 109.378 48.9724 109.378 48.4676V37.1741C109.378 36.924 109.428 36.6763 109.525 36.4451C109.622 36.2139 109.766 36.0039 109.946 35.8269C110.126 35.65 110.34 35.5096 110.576 35.4138C110.811 35.318 111.063 35.2687 111.318 35.2687C111.573 35.2687 111.826 35.318 112.061 35.4138C112.297 35.5096 112.511 35.65 112.691 35.8269C112.871 36.0039 113.014 36.2139 113.111 36.4451C113.209 36.6763 113.258 36.924 113.258 37.1741V48.4676C113.258 48.9724 113.053 49.4565 112.69 49.8134C112.325 50.1704 111.833 50.3712 111.318 50.3718ZM111.318 53.5002C111.992 53.5002 112.658 53.37 113.28 53.1171C113.902 52.8642 114.468 52.4935 114.945 52.0262C115.421 51.5588 115.798 51.0041 116.056 50.3935C116.314 49.7829 116.446 49.1285 116.446 48.4676V37.1741C116.445 35.8397 115.906 34.5603 114.944 33.6169C113.982 32.6736 112.677 32.1436 111.318 32.1436C109.958 32.1436 108.654 32.6736 107.693 33.6169C106.731 34.5603 106.19 35.8397 106.19 37.1741V48.4676C106.19 49.8023 106.73 51.0824 107.692 52.0262C108.654 52.9699 109.958 53.5002 111.318 53.5002Z" fill="#0C0C0C"/>
<path d="M123.203 33.0887H120.015V49.1232H123.203V33.0887Z" fill="#0C0C0C"/>
<path d="M131.898 43.5127C131.384 43.5122 130.89 43.3113 130.527 42.9543C130.163 42.5973 129.958 42.1133 129.957 41.6085V37.174C129.957 36.669 130.162 36.1847 130.526 35.8276C130.89 35.4704 131.383 35.2698 131.898 35.2698C132.413 35.2698 132.906 35.4704 133.27 35.8276C133.634 36.1847 133.839 36.669 133.839 37.174V41.6085C133.838 42.1133 133.634 42.5973 133.269 42.9543C132.906 43.3113 132.412 43.5122 131.898 43.5127ZM131.898 46.6411C133.258 46.6411 134.562 46.1108 135.524 45.1671C136.486 44.2232 137.027 42.9432 137.027 41.6085V37.174C137.027 35.8393 136.486 34.5592 135.524 33.6155C134.562 32.6717 133.258 32.1415 131.898 32.1415C130.538 32.1415 129.234 32.6717 128.272 33.6155C127.31 34.5592 126.77 35.8393 126.77 37.174V41.6085C126.77 42.9432 127.31 44.2232 128.272 45.1671C129.234 46.1108 130.538 46.6411 131.898 46.6411Z" fill="#0C0C0C"/>
<path d="M144.002 33.0887H140.814L140.594 45.6938H143.782L144.002 33.0887Z" fill="#0C0C0C"/>
<path d="M152.476 46.9421C151.961 46.9416 151.469 46.7408 151.104 46.3838C150.741 46.0268 150.536 45.5428 150.536 45.0379V37.174C150.536 36.669 150.74 36.1847 151.104 35.8276C151.468 35.4705 151.961 35.2699 152.476 35.2699C152.99 35.2699 153.484 35.4705 153.848 35.8276C154.212 36.1847 154.416 36.669 154.416 37.174V45.0379C154.416 45.5428 154.211 46.0268 153.847 46.3838C153.484 46.7408 152.99 46.9416 152.476 46.9421ZM152.476 50.0705C153.836 50.0705 155.14 49.5403 156.102 48.5965C157.064 47.6528 157.604 46.3727 157.604 45.0379V37.174C157.604 35.8393 157.064 34.5592 156.102 33.6155C155.14 32.6717 153.836 32.1415 152.476 32.1415C151.116 32.1415 149.811 32.6717 148.849 33.6155C147.888 34.5592 147.348 35.8393 147.348 37.174V45.0379C147.348 45.6989 147.48 46.3533 147.738 46.9638C147.996 47.5744 148.373 48.1292 148.849 48.5965C149.326 49.0639 149.892 49.4345 150.514 49.6874C151.136 49.9404 151.802 50.0705 152.476 50.0705Z" fill="#0C0C0C"/>
<path d="M0 0.5H9.89819C10.8532 0.499749 11.8049 0.612274 12.7325 0.835149C13.626 1.04154 14.4719 1.41183 15.2253 1.92653C15.9607 2.437 16.5681 3.10508 17.0015 3.88013C17.4554 4.67646 17.6821 5.63798 17.6816 6.7647C17.6816 8.17403 17.2754 9.33606 16.463 10.2508C15.65 11.1646 14.5861 11.8215 13.2711 12.2216V12.2932C14.0397 12.3796 14.7865 12.5997 15.4763 12.9434C16.1348 13.2662 16.7251 13.7085 17.216 14.2468C17.7018 14.7852 18.0844 15.4053 18.3456 16.0772C18.6248 16.79 18.7648 17.5479 18.7587 18.3116C18.7587 19.6722 18.4838 20.8046 17.9341 21.7089C17.399 22.5955 16.6546 23.3431 15.7638 23.8887C14.8159 24.4608 13.7708 24.8605 12.6785 25.069C11.516 25.3041 10.332 25.4221 9.14512 25.4213H0V0.5ZM4.51854 10.6375H8.64303C10.1507 10.6375 11.2808 10.3501 12.0334 9.77526C12.7865 9.19956 13.163 8.44235 13.163 7.50374C13.163 6.42668 12.7743 5.62366 11.9969 5.09468C11.2205 4.56474 9.97113 4.30026 8.24897 4.30121H4.51854V10.6375ZM4.51854 21.6201H8.67952C9.29696 21.6181 9.91374 21.5827 10.5272 21.5141C11.1549 21.451 11.7672 21.2844 12.3384 21.0213C12.8802 20.7696 13.3489 20.3885 13.7016 19.9128C14.0592 19.4316 14.2382 18.7804 14.2387 17.9592C14.2387 16.6444 13.8022 15.7287 12.9295 15.2121C12.0567 14.6965 10.6999 14.4387 8.85901 14.4387H4.51854V21.6201Z" fill="#0C0C0C"/>
<path d="M20.5166 8.52625H25.2511L30.0572 20.2479H30.1287L34.4327 8.52625H38.9162L30.7738 29.0476C30.4977 29.7741 30.1558 30.4749 29.7521 31.1416C29.4045 31.7137 28.9621 32.2249 28.443 32.654C27.9208 33.0744 27.317 33.3862 26.6683 33.5707C25.9867 33.7683 25.1674 33.8676 24.2106 33.8686C23.0966 33.8699 21.9872 33.7284 20.9106 33.4475L21.4492 29.6463C21.7959 29.765 22.1491 29.8645 22.5073 29.9442C22.8779 30.0268 23.2569 30.0681 23.6369 30.0674C24.0834 30.0767 24.5293 30.0295 24.9636 29.927C25.2962 29.8491 25.6071 29.6998 25.8739 29.4898C26.1407 29.2797 26.3566 29.0142 26.5063 28.7125C26.6727 28.3946 26.8521 28.0136 27.0449 27.5695L27.8695 25.5615L20.5166 8.52625Z" fill="#0C0C0C"/>
<path d="M39.4531 12.1157V8.52651H43.004V3.63391H47.308V8.52651H52.0426V12.1157H47.308V19.509C47.308 20.3541 47.4695 21.0225 47.7926 21.5142C48.1151 22.0069 48.7548 22.2532 49.7118 22.2532C50.1331 22.2499 50.5532 22.2087 50.9669 22.1301C51.4208 22.047 51.7794 21.9124 52.0426 21.7262V25.2811C51.5138 25.5132 50.9507 25.6611 50.3744 25.7193C49.7977 25.7963 49.2167 25.8375 48.6347 25.8424C47.4875 25.8424 46.5491 25.7193 45.8193 25.4729C45.0896 25.2266 44.5161 24.8513 44.0986 24.3472C43.6797 23.843 43.3927 23.2157 43.2375 22.4652C43.0714 21.6061 42.9932 20.7329 43.004 19.8585V12.1157H39.4531Z" fill="#0C0C0C"/>
<path d="M58.8577 18.4516C59.0022 19.7178 59.5047 20.7031 60.3653 21.4078C61.225 22.1125 62.2651 22.4648 63.4858 22.4648C64.5614 22.4648 65.4638 22.2471 66.193 21.8117C66.9237 21.3787 67.5729 20.8254 68.1123 20.1761L71.1976 22.4648C70.1921 23.6851 69.0677 24.553 67.8248 25.0687C66.5885 25.5829 65.259 25.846 63.9163 25.842C62.6676 25.8505 61.4278 25.636 60.2574 25.209C59.1521 24.8198 58.1406 24.2112 57.2858 23.4212C56.431 22.6311 55.7514 21.6766 55.2893 20.6172C54.7989 19.5258 54.5537 18.3113 54.5537 16.9735C54.5537 15.6358 54.7989 14.4212 55.2893 13.3299C55.7539 12.2749 56.431 11.3229 57.28 10.5312C58.1402 9.74333 59.1526 9.13261 60.2574 8.73518C61.4282 8.30953 62.6677 8.09506 63.9163 8.10212C65.041 8.08922 66.1568 8.29868 67.1972 8.71799C68.1707 9.11708 69.0409 9.72491 69.744 10.4969C70.4489 11.2702 70.9991 12.2261 71.3946 13.3643C71.7887 14.5043 71.9857 15.8124 71.9857 17.2886V18.4516H58.8577ZM67.6817 15.2835C67.6584 14.0402 67.2638 13.0606 66.4981 12.3445C65.7333 11.6283 64.6693 11.2702 63.3062 11.2702C62.0146 11.2702 60.9924 11.634 60.2399 12.3617C59.4867 13.0893 59.0261 14.0632 58.8577 15.2835H67.6817Z" fill="#0C0C0C"/>
<path d="M73.6714 8.52625H78.3345L82.0648 20.3539H82.1364L85.6158 8.52625H90.2772L94.0076 20.3539H94.0792L97.6663 8.52625H102.007L96.1602 25.4212H91.8916L87.804 13.8772H87.7323L84.1082 25.4212H79.6611L73.6714 8.52625Z" fill="#0C0C0C"/>
<path d="M115.314 23.0982H115.205C114.583 24.0606 113.794 24.7587 112.838 25.1921C111.848 25.6337 110.771 25.8558 109.683 25.8424C108.9 25.8443 108.121 25.7382 107.368 25.5272C106.646 25.3311 105.966 25.0089 105.36 24.5762C104.775 24.1561 104.291 23.6154 103.943 22.9922C103.585 22.3592 103.406 21.6201 103.405 20.7751C103.405 19.8584 103.573 19.0783 103.908 18.4347C104.229 17.8048 104.688 17.2522 105.252 16.8163C105.841 16.3664 106.501 16.0151 107.207 15.7765C107.959 15.5153 108.734 15.3207 109.521 15.1949C110.323 15.067 111.131 14.9848 111.942 14.9486C112.755 14.9142 113.52 14.897 114.237 14.897H115.314V14.4387C115.314 13.3846 114.942 12.593 114.202 12.064C113.46 11.5341 112.515 11.2696 111.368 11.2706C110.496 11.2646 109.631 11.4261 108.822 11.7461C108.063 12.0435 107.369 12.48 106.777 13.0323L104.517 10.8123C105.45 9.86697 106.599 9.15484 107.87 8.73549C109.148 8.31429 110.486 8.10046 111.834 8.10243C113.054 8.10243 114.082 8.23993 114.92 8.50918C115.756 8.77845 116.449 9.12411 116.999 9.5461C117.523 9.94021 117.956 10.438 118.272 11.0071C118.562 11.5342 118.779 12.0967 118.918 12.68C119.046 13.2172 119.124 13.7646 119.152 14.3156C119.175 14.8426 119.186 15.3067 119.186 15.7077V25.4212H115.314V23.0982ZM115.062 17.8532H114.167C113.568 17.8532 112.898 17.8771 112.156 17.9249C111.448 17.966 110.745 18.0773 110.06 18.2571C109.458 18.4078 108.891 18.6714 108.391 19.0334C107.936 19.3743 107.71 19.847 107.71 20.4571C107.71 20.8581 107.799 21.1932 107.978 21.4625C108.161 21.7353 108.399 21.9683 108.677 22.1472C108.973 22.3391 109.301 22.477 109.646 22.5539C109.999 22.6344 110.359 22.6757 110.722 22.6771C112.204 22.6771 113.299 22.3305 114.004 21.6372C114.709 20.9469 115.062 20.0026 115.062 18.8042V17.8532Z" fill="#0C0C0C"/>
<path d="M121.484 8.52625H126.181L130.773 20.3539H130.845L135.472 8.52625H139.883L133.104 25.4212H128.514L121.484 8.52625Z" fill="#0C0C0C"/>
<path d="M145.872 18.4517C146.017 19.7178 146.519 20.7031 147.38 21.4078C148.239 22.1125 149.28 22.4648 150.5 22.4648C151.576 22.4648 152.478 22.2471 153.208 21.8117C153.938 21.3787 154.587 20.8254 155.127 20.1761L158.212 22.4648C157.206 23.6851 156.082 24.553 154.84 25.0687C153.603 25.5829 152.274 25.846 150.931 25.842C149.682 25.8505 148.442 25.636 147.272 25.209C146.166 24.8198 145.155 24.2112 144.3 23.4212C143.446 22.6311 142.766 21.6766 142.304 20.6172C141.814 19.5258 141.568 18.3113 141.568 16.9736C141.568 15.6358 141.814 14.4212 142.304 13.3299C142.769 12.2749 143.446 11.3229 144.295 10.5312C145.155 9.74333 146.167 9.13261 147.272 8.73518C148.443 8.30953 149.683 8.09506 150.931 8.10212C152.055 8.08922 153.171 8.29868 154.211 8.71799C155.186 9.11708 156.056 9.72491 156.758 10.4969C157.463 11.2702 158.014 12.2261 158.409 13.3643C158.803 14.5043 159 15.8124 159 17.2886V18.4517H145.872ZM154.696 15.2835C154.673 14.0402 154.279 13.0606 153.513 12.3445C152.748 11.6283 151.684 11.2702 150.32 11.2702C149.029 11.2702 148.007 11.634 147.255 12.3617C146.501 13.0893 146.04 14.0632 145.872 15.2835H154.696Z" fill="#0C0C0C"/>
</g>
<defs>
<clipPath id="clip0_206_517">
<rect width="159" height="53" fill="white" transform="translate(0 0.5)"/>
</clipPath>
</defs>
</svg>
